<svg width="30" height="23" viewBox="0 0 30 23" fill="none" xmlns="http://www.w3.org/2000/svg">
<path d="M27.5014 15.2317V6.25069C27.4994 4.59351 26.8402 3.00478 25.6684 1.83298C24.4966 0.661175 22.9079 0.00198504 21.2507 0H8.74931C7.09213 0.00198504 5.5034 0.661175 4.3316 1.83298C3.1598 3.00478 2.50061 4.59351 2.49862 6.25069V15.2317C1.66518 15.5252 0.962522 16.1043 0.515105 16.8663C0.067688 17.6283 -0.0956153 18.524 0.0541187 19.3949C0.203853 20.2657 0.656961 21.0555 1.33319 21.6243C2.00942 22.193 2.86513 22.5042 3.74876 22.5025H26.2512C27.1349 22.5042 27.9906 22.193 28.6668 21.6243C29.343 21.0555 29.7961 20.2657 29.9459 19.3949C30.0956 18.524 29.9323 17.6283 29.4849 16.8663C29.0375 16.1043 28.3348 15.5252 27.5014 15.2317ZM8.74931 2.50027H21.2507C22.2454 2.50027 23.1993 2.89541 23.9026 3.59875C24.606 4.30208 25.0011 5.25602 25.0011 6.25069V15.0017H19.8118C19.4482 15.0014 19.0889 15.0805 18.759 15.2333C18.4291 15.3862 18.1365 15.6092 17.9016 15.8867L17.5928 16.2518H12.406L12.0984 15.8867C11.8635 15.6092 11.5709 15.3862 11.241 15.2333C10.9111 15.0805 10.5518 15.0014 10.1882 15.0017H4.9989V6.25069C4.9989 5.25602 5.39403 4.30208 6.09737 3.59875C6.80071 2.89541 7.75464 2.50027 8.74931 2.50027ZM26.2512 20.0022H3.74876C3.4172 20.0022 3.09923 19.8705 2.86478 19.636C2.63033 19.4016 2.49862 19.0836 2.49862 18.7521C2.49862 18.4205 2.63033 18.1025 2.86478 17.8681C3.09923 17.6336 3.4172 17.5019 3.74876 17.5019H10.1895L10.497 17.867C10.7318 18.1444 11.0242 18.3672 11.3538 18.5201C11.6835 18.673 12.0426 18.7521 12.406 18.7521H17.5928C17.9564 18.7523 18.3157 18.6732 18.6456 18.5204C18.9755 18.3675 19.2681 18.1445 19.503 17.867L19.8118 17.5019H26.2512C26.5828 17.5019 26.9008 17.6336 27.1352 17.8681C27.3697 18.1025 27.5014 18.4205 27.5014 18.7521C27.5014 19.0836 27.3697 19.4016 27.1352 19.636C26.9008 19.8705 26.5828 20.0022 26.2512 20.0022Z" fill="black"/>
</svg>
